<?xml version="1.0" standalone="no"?>
<!DOCTYPE svg PUBLIC "-//W3C//DTD SVG 1.1//EN" "http://www.w3.org/Graphics/SVG/1.1/DTD/svg11.dtd" >
<svg xmlns="http://www.w3.org/2000/svg" xmlns:xlink="http://www.w3.org/1999/xlink" version="1.1">
<metadata></metadata>
<defs>
<font id="fzjcxsregular" horiz-adv-x="393" vert-adv-y="2048" >
<font-face units-per-em="2048" ascent="1741" descent="-307" />
<missing-glyph horiz-adv-x="1024" />
<glyph horiz-adv-x="0" vert-adv-y="0" />
<glyph horiz-adv-x="682" />
<glyph unicode=" "  horiz-adv-x="1024" />
<glyph unicode="&#x09;" horiz-adv-x="1024" />
<glyph unicode="&#xa0;" horiz-adv-x="1024" />
<glyph unicode="!" horiz-adv-x="234" d="M77 8v80h81v-80h-81zM77 167v79h81v-79h-81zM77 246v79h81v-79h-81zM77 325v77h81v-77h-81z" />
<glyph unicode="&#x22;" horiz-adv-x="472" d="M77 246v79h81v-79h-81zM158 325v77h77v-77h-77zM235 246v79h80v-79h-80zM315 325v77h79v-77h-79z" />
<glyph unicode="#" horiz-adv-x="551" d="M77 87v80h81v-80h-81zM77 244v77h81v-77h-81zM158 8v79h77v-79h-77zM158 87v80h77v-80h-77zM158 167v77h77v-77h-77zM158 244v77h77v-77h-77zM158 321v81h77v-81h-77zM235 87v80h80v-80h-80zM235 244v77h80v-77h-80zM315 8v79h79v-79h-79zM315 87v80h79v-80h-79zM315 167 v77h79v-77h-79zM315 244v77h79v-77h-79zM315 321v81h79v-81h-79zM394 87v80h79v-80h-79zM394 244v77h79v-77h-79z" />
<glyph unicode="$" horiz-adv-x="551" d="M77 246v79h81v-79h-81zM158 8v80h77v-80h-77zM158 167v79h77v-79h-77zM158 325v77h77v-77h-77zM235 8v80h80v-80h-80zM235 8h80v-77h-80v77zM235 88v79h80v-79h-80zM235 167v79h80v-79h-80zM235 246v79h80v-79h-80zM235 325v77h80v-77h-80zM235 402v80h80v-80h-80zM315 8 v80h79v-80h-79zM315 167v79h79v-79h-79zM315 325v77h79v-77h-79zM394 88v79h79v-79h-79z" />
<glyph unicode="%" horiz-adv-x="708" d="M77 8v79h81v-79h-81zM77 402v77h81v-77h-81zM158 87v80h77v-80h-77zM158 325v77h77v-77h-77zM158 479v80h77v-80h-77zM235 167v77h80v-77h-80zM235 402v77h80v-77h-80zM315 244v81h79v-81h-79zM394 87v80h79v-80h-79zM394 325v77h79v-77h-79zM473 8v79h78v-79h-78z M473 167v77h78v-77h-78zM473 402v77h78v-77h-78zM551 87v80h79v-80h-79zM551 479v80h79v-80h-79z" />
<glyph unicode="&#x26;" horiz-adv-x="472" d="M77 88v79h81v-79h-81zM77 246v79h81v-79h-81zM158 8v80h77v-80h-77zM158 167v79h77v-79h-77zM158 325v77h77v-77h-77zM235 88v79h80v-79h-80zM235 246v79h80v-79h-80zM315 8v80h79v-80h-79zM315 167v79h79v-79h-79z" />
<glyph unicode="'" horiz-adv-x="315" d="M77 87v80h81v-80h-81zM77 167v77h81v-77h-81zM158 244v77h77v-77h-77zM158 321v81h77v-81h-77z" />
<glyph unicode="(" horiz-adv-x="315" d="M77 88v79h81v-79h-81zM77 167v79h81v-79h-81zM77 246v79h81v-79h-81zM158 8v80h77v-80h-77zM158 325v77h77v-77h-77z" />
<glyph unicode=")" horiz-adv-x="315" d="M77 8v80h81v-80h-81zM77 325v77h81v-77h-81zM158 88v79h77v-79h-77zM158 167v79h77v-79h-77zM158 246v79h77v-79h-77z" />
<glyph unicode="*" horiz-adv-x="551" d="M77 87v80h81v-80h-81zM77 244v77h81v-77h-81zM158 167v77h77v-77h-77zM235 167v77h80v-77h-80zM235 244v77h80v-77h-80zM235 321v81h80v-81h-80zM315 167v77h79v-77h-79zM394 87v80h79v-80h-79zM394 244v77h79v-77h-79z" />
<glyph unicode="+" d="M77 156v77h81v-77h-81zM158 79v77h77v-77h-77zM158 156v77h77v-77h-77zM158 233v81h77v-81h-77zM235 156v77h80v-77h-80z" />
<glyph unicode="," horiz-adv-x="315" d="M77 8h81v-79h-81v79zM158 8v79h77v-79h-77z" />
<glyph unicode="-" d="M77 156v80h81v-80h-81zM158 156v80h77v-80h-77zM235 156v80h80v-80h-80z" />
<glyph unicode="." horiz-adv-x="234" d="M77 8v80h81v-80h-81z" />
<glyph unicode="/" horiz-adv-x="708" d="M77 8v79h81v-79h-81zM158 87v80h77v-80h-77zM235 167v77h80v-77h-80zM315 244v81h79v-81h-79zM394 325v77h79v-77h-79zM473 402v77h78v-77h-78zM551 479v80h79v-80h-79z" />
<glyph unicode="0" d="M77 88v79h81v-79h-81zM77 167v79h81v-79h-81zM77 246v79h81v-79h-81zM158 8v80h77v-80h-77zM158 325v77h77v-77h-77zM235 88v79h80v-79h-80zM235 167v79h80v-79h-80zM235 246v79h80v-79h-80z" />
<glyph unicode="1" horiz-adv-x="315" d="M77 325v77h81v-77h-81zM158 8v80h77v-80h-77zM158 88v79h77v-79h-77zM158 167v79h77v-79h-77zM158 246v79h77v-79h-77zM158 325v77h77v-77h-77z" />
<glyph unicode="2" d="M77 8v80h81v-80h-81zM77 88v79h81v-79h-81zM77 325v77h81v-77h-81zM158 8v80h77v-80h-77zM158 167v79h77v-79h-77zM158 325v77h77v-77h-77zM235 8v80h80v-80h-80zM235 246v79h80v-79h-80z" />
<glyph unicode="3" d="M77 8v80h81v-80h-81zM77 325v77h81v-77h-81zM158 8v80h77v-80h-77zM158 167v79h77v-79h-77zM158 325v77h77v-77h-77zM235 88v79h80v-79h-80zM235 246v79h80v-79h-80z" />
<glyph unicode="4" d="M77 88v79h81v-79h-81zM77 167v79h81v-79h-81zM158 88v79h77v-79h-77zM158 246v79h77v-79h-77zM235 8v80h80v-80h-80zM235 88v79h80v-79h-80zM235 167v79h80v-79h-80zM235 246v79h80v-79h-80zM235 325v77h80v-77h-80z" />
<glyph unicode="5" d="M77 8v80h81v-80h-81zM77 167v79h81v-79h-81zM77 246v79h81v-79h-81zM77 325v77h81v-77h-81zM158 8v80h77v-80h-77zM158 167v79h77v-79h-77zM158 325v77h77v-77h-77zM235 88v79h80v-79h-80zM235 325v77h80v-77h-80z" />
<glyph unicode="6" d="M77 88v79h81v-79h-81zM77 167v79h81v-79h-81zM77 246v79h81v-79h-81zM158 8v80h77v-80h-77zM158 167v79h77v-79h-77zM158 325v77h77v-77h-77zM235 88v79h80v-79h-80zM235 325v77h80v-77h-80z" />
<glyph unicode="7" d="M77 325v77h81v-77h-81zM158 8v80h77v-80h-77zM158 88v79h77v-79h-77zM158 167v79h77v-79h-77zM158 325v77h77v-77h-77zM235 246v79h80v-79h-80zM235 325v77h80v-77h-80z" />
<glyph unicode="8" d="M77 88v79h81v-79h-81zM77 246v79h81v-79h-81zM158 8v80h77v-80h-77zM158 167v79h77v-79h-77zM158 325v77h77v-77h-77zM235 88v79h80v-79h-80zM235 246v79h80v-79h-80z" />
<glyph unicode="9" d="M77 8v80h81v-80h-81zM77 246v79h81v-79h-81zM158 8v80h77v-80h-77zM158 167v79h77v-79h-77zM158 325v77h77v-77h-77zM235 88v79h80v-79h-80zM235 167v79h80v-79h-80zM235 246v79h80v-79h-80z" />
<glyph unicode=":" horiz-adv-x="234" d="M77 8v79h81v-79h-81zM77 167v77h81v-77h-81z" />
<glyph unicode=";" horiz-adv-x="315" d="M77 8h81v-79h-81v79zM158 8v79h77v-79h-77zM158 167v77h77v-77h-77z" />
<glyph unicode="&#x3c;" horiz-adv-x="315" d="M77 156v80h81v-80h-81zM158 79v77h77v-77h-77zM158 236v78h77v-78h-77z" />
<glyph unicode="=" horiz-adv-x="315" d="M77 79v77h81v-77h-81zM77 236v78h81v-78h-81zM158 79v77h77v-77h-77zM158 236v78h77v-78h-77z" />
<glyph unicode="&#x3e;" horiz-adv-x="315" d="M77 79v77h81v-77h-81zM77 236v78h81v-78h-81zM158 156v80h77v-80h-77z" />
<glyph unicode="?" d="M77 325v77h81v-77h-81zM158 8v80h77v-80h-77zM158 167v79h77v-79h-77zM158 402v80h77v-80h-77zM235 246v79h80v-79h-80zM235 325v77h80v-77h-80z" />
<glyph unicode="@" horiz-adv-x="708" d="M77 88v77h81v-77h-81zM77 165v81h81v-81h-81zM77 246v77h81v-77h-81zM158 8v80h77v-80h-77zM158 323v77h77v-77h-77zM235 8h80v-79h-80v79zM235 165v81h80v-81h-80zM235 400v80h80v-80h-80zM315 8h79v-79h-79v79zM315 88v77h79v-77h-79zM315 246v77h79v-77h-79zM315 400 v80h79v-80h-79zM394 8h79v-79h-79v79zM394 88v77h79v-77h-79zM394 165v81h79v-81h-79zM394 400v80h79v-80h-79zM473 88v77h78v-77h-78zM473 323v77h78v-77h-78zM551 88v77h79v-77h-79zM551 165v81h79v-81h-79zM551 246v77h79v-77h-79z" />
<glyph unicode="A" d="M77 8v80h81v-80h-81zM77 88v79h81v-79h-81zM77 167v79h81v-79h-81zM77 246v79h81v-79h-81zM158 167v79h77v-79h-77zM158 325v77h77v-77h-77zM235 8v80h80v-80h-80zM235 88v79h80v-79h-80zM235 167v79h80v-79h-80zM235 246v79h80v-79h-80z" />
<glyph unicode="B" d="M77 8v80h81v-80h-81zM77 88v79h81v-79h-81zM77 167v79h81v-79h-81zM77 246v79h81v-79h-81zM77 325v77h81v-77h-81zM158 8v80h77v-80h-77zM158 167v79h77v-79h-77zM158 325v77h77v-77h-77zM235 88v79h80v-79h-80zM235 246v79h80v-79h-80z" />
<glyph unicode="C" d="M77 88v79h81v-79h-81zM77 167v79h81v-79h-81zM77 246v79h81v-79h-81zM158 8v80h77v-80h-77zM158 325v77h77v-77h-77zM235 88v79h80v-79h-80zM235 246v79h80v-79h-80z" />
<glyph unicode="D" d="M77 8v80h81v-80h-81zM77 88v79h81v-79h-81zM77 167v79h81v-79h-81zM77 246v79h81v-79h-81zM77 325v77h81v-77h-81zM158 8v80h77v-80h-77zM158 325v77h77v-77h-77zM235 88v79h80v-79h-80zM235 167v79h80v-79h-80zM235 246v79h80v-79h-80z" />
<glyph unicode="E" d="M77 8v80h81v-80h-81zM77 88v79h81v-79h-81zM77 167v79h81v-79h-81zM77 246v79h81v-79h-81zM77 325v77h81v-77h-81zM158 8v80h77v-80h-77zM158 167v79h77v-79h-77zM158 325v77h77v-77h-77zM235 8v80h80v-80h-80zM235 325v77h80v-77h-80z" />
<glyph unicode="F" d="M77 8v80h81v-80h-81zM77 88v79h81v-79h-81zM77 167v79h81v-79h-81zM77 246v79h81v-79h-81zM77 325v77h81v-77h-81zM158 167v79h77v-79h-77zM158 325v77h77v-77h-77zM235 325v77h80v-77h-80z" />
<glyph unicode="G" d="M77 88v79h81v-79h-81zM77 167v79h81v-79h-81zM77 246v79h81v-79h-81zM158 8v80h77v-80h-77zM158 325v77h77v-77h-77zM235 8v80h80v-80h-80zM235 88v79h80v-79h-80zM235 167v79h80v-79h-80zM235 325v77h80v-77h-80z" />
<glyph unicode="H" d="M77 8v80h81v-80h-81zM77 88v79h81v-79h-81zM77 167v79h81v-79h-81zM77 246v79h81v-79h-81zM77 325v77h81v-77h-81zM158 167v79h77v-79h-77zM235 8v80h80v-80h-80zM235 88v79h80v-79h-80zM235 167v79h80v-79h-80zM235 246v79h80v-79h-80zM235 325v77h80v-77h-80z" />
<glyph unicode="I" d="M77 8v80h81v-80h-81zM77 325v77h81v-77h-81zM158 8v80h77v-80h-77zM158 88v79h77v-79h-77zM158 167v79h77v-79h-77zM158 246v79h77v-79h-77zM158 325v77h77v-77h-77zM235 8v80h80v-80h-80zM235 325v77h80v-77h-80z" />
<glyph unicode="J" d="M77 88v79h81v-79h-81zM158 8v80h77v-80h-77zM158 325v77h77v-77h-77zM235 88v79h80v-79h-80zM235 167v79h80v-79h-80zM235 246v79h80v-79h-80zM235 325v77h80v-77h-80z" />
<glyph unicode="K" d="M77 8v80h81v-80h-81zM77 88v79h81v-79h-81zM77 167v79h81v-79h-81zM77 246v79h81v-79h-81zM77 325v77h81v-77h-81zM158 167v79h77v-79h-77zM235 8v80h80v-80h-80zM235 88v79h80v-79h-80zM235 246v79h80v-79h-80zM235 325v77h80v-77h-80z" />
<glyph unicode="L" d="M77 8v80h81v-80h-81zM77 88v79h81v-79h-81zM77 167v79h81v-79h-81zM77 246v79h81v-79h-81zM77 325v77h81v-77h-81zM158 8v80h77v-80h-77zM235 8v80h80v-80h-80z" />
<glyph unicode="M" horiz-adv-x="551" d="M77 8v80h81v-80h-81zM77 88v79h81v-79h-81zM77 167v79h81v-79h-81zM77 246v79h81v-79h-81zM77 325v77h81v-77h-81zM158 246v79h77v-79h-77zM235 88v79h80v-79h-80zM235 167v79h80v-79h-80zM315 246v79h79v-79h-79zM394 8v80h79v-80h-79zM394 88v79h79v-79h-79zM394 167 v79h79v-79h-79zM394 246v79h79v-79h-79zM394 325v77h79v-77h-79z" />
<glyph unicode="N" horiz-adv-x="472" d="M77 8v80h81v-80h-81zM77 88v79h81v-79h-81zM77 167v79h81v-79h-81zM77 246v79h81v-79h-81zM77 325v77h81v-77h-81zM158 246v79h77v-79h-77zM235 167v79h80v-79h-80zM315 8v80h79v-80h-79zM315 88v79h79v-79h-79zM315 167v79h79v-79h-79zM315 246v79h79v-79h-79zM315 325 v77h79v-77h-79z" />
<glyph unicode="O" d="M77 88v79h81v-79h-81zM77 167v79h81v-79h-81zM77 246v79h81v-79h-81zM158 8v80h77v-80h-77zM158 325v77h77v-77h-77zM235 88v79h80v-79h-80zM235 167v79h80v-79h-80zM235 246v79h80v-79h-80z" />
<glyph unicode="P" d="M77 8v80h81v-80h-81zM77 88v79h81v-79h-81zM77 167v79h81v-79h-81zM77 246v79h81v-79h-81zM77 325v77h81v-77h-81zM158 167v79h77v-79h-77zM158 325v77h77v-77h-77zM235 246v79h80v-79h-80z" />
<glyph unicode="Q" d="M77 88v79h81v-79h-81zM77 167v79h81v-79h-81zM77 246v79h81v-79h-81zM158 8v80h77v-80h-77zM158 325v77h77v-77h-77zM235 8h80v-77h-80v77zM235 88v79h80v-79h-80zM235 167v79h80v-79h-80zM235 246v79h80v-79h-80z" />
<glyph unicode="R" d="M77 8v80h81v-80h-81zM77 88v79h81v-79h-81zM77 167v79h81v-79h-81zM77 246v79h81v-79h-81zM77 325v77h81v-77h-81zM158 167v79h77v-79h-77zM158 325v77h77v-77h-77zM235 8v80h80v-80h-80zM235 88v79h80v-79h-80zM235 246v79h80v-79h-80z" />
<glyph unicode="S" d="M77 8v80h81v-80h-81zM77 246v79h81v-79h-81zM158 8v80h77v-80h-77zM158 167v79h77v-79h-77zM158 325v77h77v-77h-77zM235 88v79h80v-79h-80zM235 325v77h80v-77h-80z" />
<glyph unicode="T" d="M77 325v77h81v-77h-81zM158 8v80h77v-80h-77zM158 88v79h77v-79h-77zM158 167v79h77v-79h-77zM158 246v79h77v-79h-77zM158 325v77h77v-77h-77zM235 325v77h80v-77h-80z" />
<glyph unicode="U" d="M77 88v79h81v-79h-81zM77 167v79h81v-79h-81zM77 246v79h81v-79h-81zM77 325v77h81v-77h-81zM158 8v80h77v-80h-77zM235 88v79h80v-79h-80zM235 167v79h80v-79h-80zM235 246v79h80v-79h-80zM235 325v77h80v-77h-80z" />
<glyph unicode="V" d="M77 167v77h81v-77h-81zM77 244v77h81v-77h-81zM77 321v81h81v-81h-81zM158 8v79h77v-79h-77zM158 87v80h77v-80h-77zM235 167v77h80v-77h-80zM235 244v77h80v-77h-80zM235 321v81h80v-81h-80z" />
<glyph unicode="W" horiz-adv-x="551" d="M77 88v79h81v-79h-81zM77 167v79h81v-79h-81zM77 246v79h81v-79h-81zM77 325v77h81v-77h-81zM158 8v80h77v-80h-77zM235 88v79h80v-79h-80zM235 167v79h80v-79h-80zM235 246v79h80v-79h-80zM235 325v77h80v-77h-80zM315 8v80h79v-80h-79zM394 88v79h79v-79h-79zM394 167 v79h79v-79h-79zM394 246v79h79v-79h-79zM394 325v77h79v-77h-79z" />
<glyph unicode="X" d="M77 8v80h81v-80h-81zM77 88v79h81v-79h-81zM77 246v79h81v-79h-81zM77 325v77h81v-77h-81zM158 167v79h77v-79h-77zM235 8v80h80v-80h-80zM235 88v79h80v-79h-80zM235 246v79h80v-79h-80zM235 325v77h80v-77h-80z" />
<glyph unicode="Y" d="M77 246v79h81v-79h-81zM77 325v77h81v-77h-81zM158 8v80h77v-80h-77zM158 88v79h77v-79h-77zM158 167v79h77v-79h-77zM235 246v79h80v-79h-80zM235 325v77h80v-77h-80z" />
<glyph unicode="Z" d="M77 8v80h81v-80h-81zM77 88v79h81v-79h-81zM77 325v77h81v-77h-81zM158 8v80h77v-80h-77zM158 167v79h77v-79h-77zM158 325v77h77v-77h-77zM235 8v80h80v-80h-80zM235 246v79h80v-79h-80zM235 325v77h80v-77h-80z" />
<glyph unicode="[" horiz-adv-x="315" d="M77 8v80h81v-80h-81zM77 8h81v-79h-81v79zM77 88v77h81v-77h-81zM77 165v81h81v-81h-81zM77 246v77h81v-77h-81zM77 323v77h81v-77h-81zM77 400v80h81v-80h-81zM158 8h77v-79h-77v79zM158 400v80h77v-80h-77z" />
<glyph unicode="\" horiz-adv-x="708" d="M77 400v80h81v-80h-81zM158 323v77h77v-77h-77zM235 246v77h80v-77h-80zM315 165v81h79v-81h-79zM394 88v77h79v-77h-79zM473 8v80h78v-80h-78zM551 8h79v-79h-79v79z" />
<glyph unicode="]" horiz-adv-x="315" d="M77 8h81v-79h-81v79zM77 400v80h81v-80h-81zM158 8v80h77v-80h-77zM158 8h77v-79h-77v79zM158 88v77h77v-77h-77zM158 165v81h77v-81h-77zM158 246v77h77v-77h-77zM158 323v77h77v-77h-77zM158 400v80h77v-80h-77z" />
<glyph unicode="^" d="M77 246v79h81v-79h-81zM158 325v77h77v-77h-77zM235 246v79h80v-79h-80z" />
<glyph unicode="_" horiz-adv-x="315" d="M77 9h81v-80h-81v80zM158 9h77v-80h-77v80z" />
<glyph unicode="`" horiz-adv-x="315" d="M77 325v77h81v-77h-81zM158 246v79h77v-79h-77z" />
<glyph unicode="a" d="M77 88v79h81v-79h-81zM158 8v80h77v-80h-77zM158 167v79h77v-79h-77zM235 8v80h80v-80h-80zM235 88v79h80v-79h-80z" />
<glyph unicode="b" d="M77 8v80h81v-80h-81zM77 88v79h81v-79h-81zM77 167v79h81v-79h-81zM77 246v79h81v-79h-81zM77 325v77h81v-77h-81zM158 8v80h77v-80h-77zM158 167v79h77v-79h-77zM235 88v79h80v-79h-80z" />
<glyph unicode="c" d="M77 88v79h81v-79h-81zM158 8v80h77v-80h-77zM158 167v79h77v-79h-77zM235 8v80h80v-80h-80zM235 167v79h80v-79h-80z" />
<glyph unicode="d" d="M77 88v79h81v-79h-81zM158 8v80h77v-80h-77zM158 167v79h77v-79h-77zM235 8v80h80v-80h-80zM235 88v79h80v-79h-80zM235 167v79h80v-79h-80zM235 246v79h80v-79h-80zM235 325v77h80v-77h-80z" />
<glyph unicode="e" d="M77 8v80h81v-80h-81zM77 88v79h81v-79h-81zM158 8v80h77v-80h-77zM158 167v79h77v-79h-77zM235 88v79h80v-79h-80z" />
<glyph unicode="f" d="M77 -71h81v-79h-81v79zM77 167v77h81v-77h-81zM158 8v79h77v-79h-77zM158 8h77v-79h-77v79zM158 87v80h77v-80h-77zM158 167v77h77v-77h-77zM158 244v77h77v-77h-77zM235 167v77h80v-77h-80zM235 321v81h80v-81h-80z" />
<glyph unicode="g" d="M77 -71h81v-79h-81v79zM77 88v77h81v-77h-81zM158 8v80h77v-80h-77zM158 -71h77v-79h-77v79zM158 165v81h77v-81h-77zM235 8v80h80v-80h-80zM235 8h80v-79h-80v79zM235 88v77h80v-77h-80z" />
<glyph unicode="h" d="M77 8v80h81v-80h-81zM77 88v79h81v-79h-81zM77 167v79h81v-79h-81zM77 246v79h81v-79h-81zM77 325v77h81v-77h-81zM158 167v79h77v-79h-77zM235 8v80h80v-80h-80zM235 88v79h80v-79h-80z" />
<glyph unicode="i" horiz-adv-x="234" d="M77 8v80h81v-80h-81zM77 88v79h81v-79h-81zM77 167v79h81v-79h-81zM77 325v77h81v-77h-81z" />
<glyph unicode="j" horiz-adv-x="315" d="M77 -69h81v-81h-81v81zM158 8v80h77v-80h-77zM158 8h77v-77h-77v77zM158 88v79h77v-79h-77zM158 167v79h77v-79h-77zM158 325v77h77v-77h-77z" />
<glyph unicode="k" d="M77 8v80h81v-80h-81zM77 88v79h81v-79h-81zM77 167v79h81v-79h-81zM77 246v79h81v-79h-81zM77 325v77h81v-77h-81zM158 88v79h77v-79h-77zM235 8v80h80v-80h-80zM235 167v79h80v-79h-80z" />
<glyph unicode="l" horiz-adv-x="234" d="M77 8v80h81v-80h-81zM77 88v79h81v-79h-81zM77 167v79h81v-79h-81zM77 246v79h81v-79h-81zM77 325v77h81v-77h-81z" />
<glyph unicode="m" horiz-adv-x="551" d="M77 8v80h81v-80h-81zM77 88v79h81v-79h-81zM77 167v79h81v-79h-81zM158 167v79h77v-79h-77zM235 8v80h80v-80h-80zM235 88v79h80v-79h-80zM315 167v79h79v-79h-79zM394 8v80h79v-80h-79zM394 88v79h79v-79h-79z" />
<glyph unicode="n" d="M77 8v80h81v-80h-81zM77 88v79h81v-79h-81zM77 167v79h81v-79h-81zM158 167v79h77v-79h-77zM235 8v80h80v-80h-80zM235 88v79h80v-79h-80z" />
<glyph unicode="o" d="M77 88v79h81v-79h-81zM158 8v80h77v-80h-77zM158 167v79h77v-79h-77zM235 88v79h80v-79h-80z" />
<glyph unicode="p" d="M77 8v79h81v-79h-81zM77 8h81v-79h-81v79zM77 -71h81v-79h-81v79zM77 87v80h81v-80h-81zM77 167v77h81v-77h-81zM158 8v79h77v-79h-77zM158 167v77h77v-77h-77zM235 87v80h80v-80h-80z" />
<glyph unicode="q" d="M77 87v80h81v-80h-81zM158 8v79h77v-79h-77zM158 167v77h77v-77h-77zM235 8v79h80v-79h-80zM235 8h80v-79h-80v79zM235 -71h80v-79h-80v79zM235 87v80h80v-80h-80zM235 167v77h80v-77h-80z" />
<glyph unicode="r" horiz-adv-x="315" d="M77 8v80h81v-80h-81zM77 88v79h81v-79h-81zM77 167v79h81v-79h-81zM158 167v79h77v-79h-77z" />
<glyph unicode="s" horiz-adv-x="315" d="M77 8v80h81v-80h-81zM77 167v79h81v-79h-81zM77 246v79h81v-79h-81zM158 8v80h77v-80h-77zM158 88v79h77v-79h-77zM158 246v79h77v-79h-77z" />
<glyph unicode="t" horiz-adv-x="315" d="M77 8v80h81v-80h-81zM77 88v79h81v-79h-81zM77 167v79h81v-79h-81zM77 246v79h81v-79h-81zM158 8v80h77v-80h-77zM158 167v79h77v-79h-77z" />
<glyph unicode="u" d="M77 88v79h81v-79h-81zM77 167v79h81v-79h-81zM158 8v80h77v-80h-77zM235 8v80h80v-80h-80zM235 88v79h80v-79h-80zM235 167v79h80v-79h-80z" />
<glyph unicode="v" d="M77 88v79h81v-79h-81zM77 167v79h81v-79h-81zM158 8v80h77v-80h-77zM235 88v79h80v-79h-80zM235 167v79h80v-79h-80z" />
<glyph unicode="w" horiz-adv-x="551" d="M77 88v79h81v-79h-81zM77 167v79h81v-79h-81zM158 8v80h77v-80h-77zM235 88v79h80v-79h-80zM235 167v79h80v-79h-80zM315 8v80h79v-80h-79zM394 88v79h79v-79h-79zM394 167v79h79v-79h-79z" />
<glyph unicode="x" d="M77 8v80h81v-80h-81zM77 167v79h81v-79h-81zM158 88v79h77v-79h-77zM235 8v80h80v-80h-80zM235 167v79h80v-79h-80z" />
<glyph unicode="y" d="M77 -71h81v-79h-81v79zM77 88v77h81v-77h-81zM77 165v81h81v-81h-81zM158 8v80h77v-80h-77zM158 -71h77v-79h-77v79zM235 8v80h80v-80h-80zM235 8h80v-79h-80v79zM235 88v77h80v-77h-80zM235 165v81h80v-81h-80z" />
<glyph unicode="z" horiz-adv-x="315" d="M77 8v80h81v-80h-81zM77 88v79h81v-79h-81zM77 246v79h81v-79h-81zM158 8v80h77v-80h-77zM158 167v79h77v-79h-77zM158 246v79h77v-79h-77z" />
<glyph unicode="{" d="M77 165v81h81v-81h-81zM158 8v80h77v-80h-77zM158 88v77h77v-77h-77zM158 246v77h77v-77h-77zM158 323v77h77v-77h-77zM235 8h80v-79h-80v79zM235 400v80h80v-80h-80z" />
<glyph unicode="|" horiz-adv-x="234" d="M77 8v80h81v-80h-81zM77 8h81v-79h-81v79zM77 88v77h81v-77h-81zM77 165v81h81v-81h-81zM77 246v77h81v-77h-81zM77 323v77h81v-77h-81zM77 400v80h81v-80h-81z" />
<glyph unicode="}" d="M77 8h81v-79h-81v79zM77 400v80h81v-80h-81zM158 8v80h77v-80h-77zM158 88v77h77v-77h-77zM158 246v77h77v-77h-77zM158 323v77h77v-77h-77zM235 165v81h80v-81h-80z" />
<glyph unicode="~" d="M77 156v80h81v-80h-81zM158 156v80h77v-80h-77zM235 156v80h80v-80h-80z" />
<glyph unicode="&#xa4;" horiz-adv-x="551" d="M77 87v77h81v-77h-81zM158 164v80h77v-80h-77zM158 321v81h77v-81h-77zM235 87v77h80v-77h-80zM235 244v77h80v-77h-80zM315 6v81h79v-81h-79zM315 164v80h79v-80h-79zM394 244v77h79v-77h-79z" />
<glyph unicode="&#xa7;" horiz-adv-x="472" d="M77 87v77h81v-77h-81zM77 244v77h81v-77h-81zM158 6v81h77v-81h-77zM158 -71h77v-80h-77v80zM158 164v80h77v-80h-77zM158 321v81h77v-81h-77zM235 6v81h80v-81h-80zM235 -71h80v-80h-80v80zM235 164v80h80v-80h-80zM235 321v81h80v-81h-80zM315 6h79v-77h-79v77zM315 87 v77h79v-77h-79z" />
<glyph unicode="&#xa8;" d="M77 321v81h81v-81h-81zM235 321v81h80v-81h-80z" />
<glyph unicode="&#xad;" d="M77 156v80h81v-80h-81zM158 156v80h77v-80h-77zM235 156v80h80v-80h-80z" />
<glyph unicode="&#xb0;" d="M77 244v77h81v-77h-81zM158 164v80h77v-80h-77zM158 321v81h77v-81h-77zM235 244v77h80v-77h-80z" />
<glyph unicode="&#xb1;" d="M77 6v81h81v-81h-81zM77 244v77h81v-77h-81zM158 6v81h77v-81h-77zM158 164v80h77v-80h-77zM158 244v77h77v-77h-77zM158 321v81h77v-81h-77zM235 6v81h80v-81h-80zM235 244v77h80v-77h-80z" />
<glyph unicode="&#xb7;" horiz-adv-x="2048" d="M902.5 257.5q0.5 52.5 34 83.5t82.5 31q50 -3 83.5 -35.5t33.5 -82.5q-2 -47 -34 -80.5t-80 -33.5q-46 -5 -85 30q-35 35 -34.5 87.5z" />
<glyph unicode="&#xd7;" d="M77 164v80h81v-80h-81zM77 321v81h81v-81h-81zM158 244v77h77v-77h-77zM235 164v80h80v-80h-80zM235 321v81h80v-81h-80z" />
<glyph unicode="&#xe0;" d="M77 87v77h81v-77h-81zM158 6v81h77v-81h-77zM158 164v80h77v-80h-77zM158 402v77h77v-77h-77zM235 6v81h80v-81h-80zM235 87v77h80v-77h-80zM235 321v81h80v-81h-80z" />
<glyph unicode="&#xe1;" d="M77 87v77h81v-77h-81zM77 321v81h81v-81h-81zM158 6v81h77v-81h-77zM158 164v80h77v-80h-77zM158 402v77h77v-77h-77zM235 6v81h80v-81h-80zM235 87v77h80v-77h-80z" />
<glyph unicode="&#xe8;" d="M77 6v81h81v-81h-81zM77 87v77h81v-77h-81zM77 164v80h81v-80h-81zM158 6v81h77v-81h-77zM158 164v80h77v-80h-77zM158 402v77h77v-77h-77zM235 87v77h80v-77h-80zM235 164v80h80v-80h-80zM235 321v81h80v-81h-80z" />
<glyph unicode="&#xe9;" d="M77 6v81h81v-81h-81zM77 87v77h81v-77h-81zM77 164v80h81v-80h-81zM77 321v81h81v-81h-81zM158 6v81h77v-81h-77zM158 164v80h77v-80h-77zM158 402v77h77v-77h-77zM235 87v77h80v-77h-80zM235 164v80h80v-80h-80z" />
<glyph unicode="&#xea;" d="M77 6v81h81v-81h-81zM77 87v77h81v-77h-81zM77 164v80h81v-80h-81zM77 321v81h81v-81h-81zM158 6v81h77v-81h-77zM158 164v80h77v-80h-77zM158 402v77h77v-77h-77zM235 87v77h80v-77h-80zM235 164v80h80v-80h-80zM235 321v81h80v-81h-80z" />
<glyph unicode="&#xec;" horiz-adv-x="315" d="M77 402v77h81v-77h-81zM158 6v81h77v-81h-77zM158 87v77h77v-77h-77zM158 164v80h77v-80h-77zM158 321v81h77v-81h-77z" />
<glyph unicode="&#xed;" horiz-adv-x="315" d="M77 6v81h81v-81h-81zM77 87v77h81v-77h-81zM77 164v80h81v-80h-81zM77 321v81h81v-81h-81zM158 402v77h77v-77h-77z" />
<glyph unicode="&#xf2;" d="M77 87v77h81v-77h-81zM158 6v81h77v-81h-77zM158 164v80h77v-80h-77zM158 402v77h77v-77h-77zM235 87v77h80v-77h-80zM235 321v81h80v-81h-80z" />
<glyph unicode="&#xf3;" d="M77 87v77h81v-77h-81zM77 321v81h81v-81h-81zM158 6v81h77v-81h-77zM158 164v80h77v-80h-77zM158 402v77h77v-77h-77zM235 87v77h80v-77h-80z" />
<glyph unicode="&#xf7;" d="M77 164v80h81v-80h-81zM158 6v81h77v-81h-77zM158 164v80h77v-80h-77zM158 321v81h77v-81h-77zM235 164v80h80v-80h-80z" />
<glyph unicode="&#xf9;" d="M77 87v77h81v-77h-81zM77 164v80h81v-80h-81zM158 6v81h77v-81h-77zM158 402v77h77v-77h-77zM235 6v81h80v-81h-80zM235 87v77h80v-77h-80zM235 164v80h80v-80h-80zM235 321v81h80v-81h-80z" />
<glyph unicode="&#xfa;" d="M77 87v77h81v-77h-81zM77 164v80h81v-80h-81zM77 321v81h81v-81h-81zM158 6v81h77v-81h-77zM158 402v77h77v-77h-77zM235 6v81h80v-81h-80zM235 87v77h80v-77h-80zM235 164v80h80v-80h-80z" />
<glyph unicode="&#xfc;" d="M77 87v77h81v-77h-81zM77 164v80h81v-80h-81zM77 321v81h81v-81h-81zM158 6v81h77v-81h-77zM235 6v81h80v-81h-80zM235 87v77h80v-77h-80zM235 164v80h80v-80h-80zM235 321v81h80v-81h-80z" />
<glyph unicode="&#x2000;" horiz-adv-x="682" vert-adv-y="0" />
<glyph unicode="&#x2001;" horiz-adv-x="1365" vert-adv-y="0" />
<glyph unicode="&#x2002;" horiz-adv-x="682" vert-adv-y="0" />
<glyph unicode="&#x2003;" horiz-adv-x="1365" vert-adv-y="0" />
<glyph unicode="&#x2004;" horiz-adv-x="455" vert-adv-y="0" />
<glyph unicode="&#x2005;" horiz-adv-x="341" vert-adv-y="0" />
<glyph unicode="&#x2006;" horiz-adv-x="227" vert-adv-y="0" />
<glyph unicode="&#x2007;" horiz-adv-x="227" vert-adv-y="0" />
<glyph unicode="&#x2008;" horiz-adv-x="170" vert-adv-y="0" />
<glyph unicode="&#x2009;" horiz-adv-x="273" vert-adv-y="0" />
<glyph unicode="&#x200a;" horiz-adv-x="75" vert-adv-y="0" />
<glyph unicode="&#x2010;" d="M77 156v80h81v-80h-81zM158 156v80h77v-80h-77zM235 156v80h80v-80h-80z" />
<glyph unicode="&#x2011;" d="M77 156v80h81v-80h-81zM158 156v80h77v-80h-77zM235 156v80h80v-80h-80z" />
<glyph unicode="&#x2012;" d="M77 156v80h81v-80h-81zM158 156v80h77v-80h-77zM235 156v80h80v-80h-80z" />
<glyph unicode="&#x2013;" horiz-adv-x="1179" d="M77 156v80h349v-80h-349zM426 156v80h331v-80h-331zM757 156v80h344v-80h-344z" />
<glyph unicode="&#x2014;" d="M77 321v81h81v-81h-81zM158 321v81h77v-81h-77zM235 321v81h80v-81h-80z" />
<glyph unicode="&#x2018;" horiz-adv-x="234" d="M77 244v77h81v-77h-81zM77 321v81h81v-81h-81z" />
<glyph unicode="&#x2019;" horiz-adv-x="234" d="M77 244v77h81v-77h-81zM77 321v81h81v-81h-81z" />
<glyph unicode="&#x201c;" d="M77 244v77h81v-77h-81zM77 321v81h81v-81h-81zM235 244v77h80v-77h-80zM235 321v81h80v-81h-80z" />
<glyph unicode="&#x201d;" d="M77 244v77h81v-77h-81zM77 321v81h81v-81h-81zM235 244v77h80v-77h-80zM235 321v81h80v-81h-80z" />
<glyph unicode="&#x2026;" horiz-adv-x="551" d="M77 321v81h81v-81h-81zM235 321v81h80v-81h-80zM394 321v81h79v-81h-79z" />
<glyph unicode="&#x202f;" horiz-adv-x="273" vert-adv-y="0" />
<glyph unicode="&#x205f;" horiz-adv-x="341" vert-adv-y="0" />
<glyph unicode="&#x25fc;" horiz-adv-x="244" vert-adv-y="488" d="M0 0v244h244v-244h-244z" />
</font>
</defs>
</svg>
